<svg xmlns="http://www.w3.org/2000/svg" version="1.1" xmlns:xlink="http://www.w3.org/1999/xlink" width="1000" height="1000"><metadata><rdf:RDF xmlns:rdf="http://www.w3.org/1999/02/22-rdf-syntax-ns#" xmlns:dc="http://purl.org/dc/elements/1.1/"><rdf:Description><dc:creator>RealFaviconGenerator</dc:creator><dc:source>https://realfavicongenerator.net</dc:source></rdf:Description></rdf:RDF></metadata><style>
    #light-icon {
      display: inline;
    }
    #dark-icon {
      display: none;
    }

    @media (prefers-color-scheme: dark) {
      #light-icon {
        display: none;
      }
      #dark-icon {
        display: inline;
      }
    }
  </style><g id="light-icon"><svg xmlns="http://www.w3.org/2000/svg" version="1.1" xmlns:xlink="http://www.w3.org/1999/xlink" width="1000" height="1000"><g clip-path="url(#SvgjsClipPath1190)"><rect width="1000" height="1000" fill="#ca3500"></rect><g transform="matrix(0.45,0,0,0.45,50,50)"><svg xmlns="http://www.w3.org/2000/svg" version="1" xmlns:xlink="http://www.w3.org/1999/xlink" width="2000" zoomAndPan="magnify" viewBox="0 0 1500 1499.999933" height="2000" preserveAspectRatio="xMidYMid meet"><defs><g></g><clipPath id="SvgjsClipPath1190"><rect width="1000" height="1000" x="0" y="0" rx="250" ry="250"></rect></clipPath></defs><rect x="-150" width="1800" fill="#ffffff" y="-149.999993" height="1799.99992" fill-opacity="1"></rect><rect x="-150" width="1800" fill="#ca3500" y="-149.999993" height="1799.99992" fill-opacity="1"></rect><g fill="#ffffff" fill-opacity="1"><g transform="translate(99.340341, 1133.249882)"><g><path d="M 85.140625 -527.375 C 85.140625 -569.738281 85.351562 -612.097656 85.78125 -654.453125 C 86.207031 -696.816406 83.664062 -734.941406 78.15625 -768.828125 C 72.644531 -802.710938 61.421875 -828.128906 44.484375 -845.078125 L 174.09375 -845.078125 L 174.09375 -165.203125 C 200.363281 -224.503906 226.203125 -286.132812 251.609375 -350.09375 C 277.023438 -414.0625 302.441406 -476.117188 327.859375 -536.265625 C 353.273438 -596.421875 379.75 -650.644531 407.28125 -698.9375 C 434.820312 -747.226562 464.476562 -785.773438 496.25 -814.578125 C 528.019531 -843.378906 562.117188 -857.78125 598.546875 -857.78125 C 626.503906 -857.78125 647.257812 -850.15625 660.8125 -834.90625 C 674.363281 -819.664062 683.46875 -799.757812 688.125 -775.1875 C 692.789062 -750.613281 695.125 -723.925781 695.125 -695.125 L 695.125 -165.203125 C 721.382812 -224.503906 747.222656 -286.132812 772.640625 -350.09375 C 798.054688 -414.0625 823.472656 -476.117188 848.890625 -536.265625 C 874.304688 -596.421875 900.78125 -650.644531 928.3125 -698.9375 C 955.851562 -747.226562 985.503906 -785.773438 1017.265625 -814.578125 C 1049.035156 -843.378906 1083.140625 -857.78125 1119.578125 -857.78125 C 1147.535156 -857.78125 1168.289062 -850.15625 1181.84375 -834.90625 C 1195.394531 -819.664062 1204.5 -799.757812 1209.15625 -775.1875 C 1213.820312 -750.613281 1216.15625 -723.925781 1216.15625 -695.125 L 1216.15625 -317.703125 C 1216.15625 -275.335938 1215.941406 -232.972656 1215.515625 -190.609375 C 1215.085938 -148.253906 1217.628906 -110.132812 1223.140625 -76.25 C 1228.648438 -42.363281 1239.875 -16.945312 1256.8125 0 L 1086.53125 0 C 1103.476562 -16.945312 1114.703125 -42.363281 1120.203125 -76.25 C 1125.710938 -110.132812 1128.253906 -148.253906 1127.828125 -190.609375 C 1127.410156 -232.972656 1127.203125 -275.335938 1127.203125 -317.703125 L 1127.203125 -730.703125 C 1127.203125 -730.703125 1126.773438 -736 1125.921875 -746.59375 C 1125.078125 -757.1875 1121.265625 -767.988281 1114.484375 -779 C 1107.710938 -790.007812 1095.851562 -795.515625 1078.90625 -795.515625 C 1054.332031 -795.515625 1029.550781 -780.898438 1004.5625 -751.671875 C 979.570312 -722.441406 954.789062 -683.894531 930.21875 -636.03125 C 905.65625 -588.164062 881.507812 -535.425781 857.78125 -477.8125 C 834.0625 -420.207031 811.1875 -362.597656 789.15625 -304.984375 C 767.132812 -247.378906 746.378906 -194.644531 726.890625 -146.78125 C 707.410156 -98.914062 689.617188 -60.367188 673.515625 -31.140625 C 657.421875 -1.910156 643.019531 12.703125 630.3125 12.703125 C 620.144531 12.703125 613.578125 7.832031 610.609375 -1.90625 C 607.648438 -11.644531 606.171875 -21.597656 606.171875 -31.765625 L 606.171875 -730.703125 C 606.171875 -730.703125 605.742188 -736 604.890625 -746.59375 C 604.046875 -757.1875 600.234375 -767.988281 593.453125 -779 C 586.679688 -790.007812 574.820312 -795.515625 557.875 -795.515625 C 533.3125 -795.515625 508.53125 -780.898438 483.53125 -751.671875 C 458.539062 -722.441406 433.757812 -683.894531 409.1875 -636.03125 C 384.625 -588.164062 360.476562 -535.425781 336.75 -477.8125 C 313.03125 -420.207031 290.15625 -362.597656 268.125 -304.984375 C 246.101562 -247.378906 225.347656 -194.644531 205.859375 -146.78125 C 186.378906 -98.914062 168.585938 -60.367188 152.484375 -31.140625 C 136.390625 -1.910156 121.988281 12.703125 109.28125 12.703125 C 99.113281 12.703125 92.546875 7.832031 89.578125 -1.90625 C 86.617188 -11.644531 85.140625 -21.597656 85.140625 -31.765625 Z M 85.140625 -527.375 "></path></g></g></g></svg></g></g></svg></g><g id="dark-icon"><svg xmlns="http://www.w3.org/2000/svg" version="1.1" xmlns:xlink="http://www.w3.org/1999/xlink" width="1000" height="1000"><g clip-path="url(#SvgjsClipPath1191)"><rect width="1000" height="1000" fill="#ca3500"></rect><g transform="matrix(0.45,0,0,0.45,50,50)"><svg xmlns="http://www.w3.org/2000/svg" version="1" xmlns:xlink="http://www.w3.org/1999/xlink" width="2000" zoomAndPan="magnify" viewBox="0 0 1500 1499.999933" height="2000" preserveAspectRatio="xMidYMid meet"><defs><g></g><clipPath id="SvgjsClipPath1191"><rect width="1000" height="1000" x="0" y="0" rx="250" ry="250"></rect></clipPath></defs><rect x="-150" width="1800" fill="#ffffff" y="-149.999993" height="1799.99992" fill-opacity="1"></rect><rect x="-150" width="1800" fill="#ca3500" y="-149.999993" height="1799.99992" fill-opacity="1"></rect><g fill="#ffffff" fill-opacity="1"><g transform="translate(99.340341, 1133.249882)"><g><path d="M 85.140625 -527.375 C 85.140625 -569.738281 85.351562 -612.097656 85.78125 -654.453125 C 86.207031 -696.816406 83.664062 -734.941406 78.15625 -768.828125 C 72.644531 -802.710938 61.421875 -828.128906 44.484375 -845.078125 L 174.09375 -845.078125 L 174.09375 -165.203125 C 200.363281 -224.503906 226.203125 -286.132812 251.609375 -350.09375 C 277.023438 -414.0625 302.441406 -476.117188 327.859375 -536.265625 C 353.273438 -596.421875 379.75 -650.644531 407.28125 -698.9375 C 434.820312 -747.226562 464.476562 -785.773438 496.25 -814.578125 C 528.019531 -843.378906 562.117188 -857.78125 598.546875 -857.78125 C 626.503906 -857.78125 647.257812 -850.15625 660.8125 -834.90625 C 674.363281 -819.664062 683.46875 -799.757812 688.125 -775.1875 C 692.789062 -750.613281 695.125 -723.925781 695.125 -695.125 L 695.125 -165.203125 C 721.382812 -224.503906 747.222656 -286.132812 772.640625 -350.09375 C 798.054688 -414.0625 823.472656 -476.117188 848.890625 -536.265625 C 874.304688 -596.421875 900.78125 -650.644531 928.3125 -698.9375 C 955.851562 -747.226562 985.503906 -785.773438 1017.265625 -814.578125 C 1049.035156 -843.378906 1083.140625 -857.78125 1119.578125 -857.78125 C 1147.535156 -857.78125 1168.289062 -850.15625 1181.84375 -834.90625 C 1195.394531 -819.664062 1204.5 -799.757812 1209.15625 -775.1875 C 1213.820312 -750.613281 1216.15625 -723.925781 1216.15625 -695.125 L 1216.15625 -317.703125 C 1216.15625 -275.335938 1215.941406 -232.972656 1215.515625 -190.609375 C 1215.085938 -148.253906 1217.628906 -110.132812 1223.140625 -76.25 C 1228.648438 -42.363281 1239.875 -16.945312 1256.8125 0 L 1086.53125 0 C 1103.476562 -16.945312 1114.703125 -42.363281 1120.203125 -76.25 C 1125.710938 -110.132812 1128.253906 -148.253906 1127.828125 -190.609375 C 1127.410156 -232.972656 1127.203125 -275.335938 1127.203125 -317.703125 L 1127.203125 -730.703125 C 1127.203125 -730.703125 1126.773438 -736 1125.921875 -746.59375 C 1125.078125 -757.1875 1121.265625 -767.988281 1114.484375 -779 C 1107.710938 -790.007812 1095.851562 -795.515625 1078.90625 -795.515625 C 1054.332031 -795.515625 1029.550781 -780.898438 1004.5625 -751.671875 C 979.570312 -722.441406 954.789062 -683.894531 930.21875 -636.03125 C 905.65625 -588.164062 881.507812 -535.425781 857.78125 -477.8125 C 834.0625 -420.207031 811.1875 -362.597656 789.15625 -304.984375 C 767.132812 -247.378906 746.378906 -194.644531 726.890625 -146.78125 C 707.410156 -98.914062 689.617188 -60.367188 673.515625 -31.140625 C 657.421875 -1.910156 643.019531 12.703125 630.3125 12.703125 C 620.144531 12.703125 613.578125 7.832031 610.609375 -1.90625 C 607.648438 -11.644531 606.171875 -21.597656 606.171875 -31.765625 L 606.171875 -730.703125 C 606.171875 -730.703125 605.742188 -736 604.890625 -746.59375 C 604.046875 -757.1875 600.234375 -767.988281 593.453125 -779 C 586.679688 -790.007812 574.820312 -795.515625 557.875 -795.515625 C 533.3125 -795.515625 508.53125 -780.898438 483.53125 -751.671875 C 458.539062 -722.441406 433.757812 -683.894531 409.1875 -636.03125 C 384.625 -588.164062 360.476562 -535.425781 336.75 -477.8125 C 313.03125 -420.207031 290.15625 -362.597656 268.125 -304.984375 C 246.101562 -247.378906 225.347656 -194.644531 205.859375 -146.78125 C 186.378906 -98.914062 168.585938 -60.367188 152.484375 -31.140625 C 136.390625 -1.910156 121.988281 12.703125 109.28125 12.703125 C 99.113281 12.703125 92.546875 7.832031 89.578125 -1.90625 C 86.617188 -11.644531 85.140625 -21.597656 85.140625 -31.765625 Z M 85.140625 -527.375 "></path></g></g></g></svg></g></g></svg></g></svg>